<?xml version="1.0" encoding="utf-8"?>
<!-- Generator: Adobe Illustrator 19.0.0, SVG Export Plug-In . SVG Version: 6.00 Build 0)  -->
<svg version="1.1" id="Layer_1" xmlns="http://www.w3.org/2000/svg" xmlns:xlink="http://www.w3.org/1999/xlink" x="0px" y="0px"
	 viewBox="-245 148.2 120 104.8" style="enable-background:new -245 148.2 120 104.8;" xml:space="preserve">
<style type="text/css">
	.st0{fill:#225DD1;}
	.st1{fill:none;stroke:#225DD2;stroke-width:1.4;stroke-miterlimit:10;}
	.st2{opacity:0.37;}
	.st3{opacity:0.47;fill:#02B7FB;enable-background:new    ;}
	.st4{opacity:0.47;}
	.st5{fill:#02B7FB;}
	.st6{fill:#FFFFFF;}
	.st7{font-family:'MyriadPro-Regular';}
	.st8{font-size:3.5679px;}
	.st9{fill:none;stroke:#225DD2;stroke-width:0.75;stroke-miterlimit:10;}
	.st10{fill:none;stroke:#225DD2;stroke-width:2;stroke-miterlimit:10;}
</style>
<g>
	<polygon class="st0" points="-160.6,171.1 -160.6,176.3 -156.7,176.4 -155.1,175.8 -154.3,174.1 -154.3,172.7 -155.8,171.1 
		-159.6,170.9 	"/>
	<g>
		<g>
			<g>
				<line class="st1" x1="-235.1" y1="250.1" x2="-143.4" y2="250.1"/>
				<line class="st1" x1="-141.9" y1="250.1" x2="-134.6" y2="250.1"/>
				<line class="st1" x1="-132.1" y1="250.1" x2="-128.4" y2="250.1"/>
				<line class="st1" x1="-241.6" y1="250.1" x2="-237.9" y2="250.1"/>
			</g>
			<g class="st2">
				<path class="st1" d="M-179.3,161H-192c-0.9-1.8-3.1-3.7-5.7-3.7c-0.8,0-1.6,0.2-2.3,0.5c-1.4-3.8-5.1-6.7-9.4-6.7
					c-5.6,0-10.1,6.3-10.1,9.9h-14.8"/>
				<line class="st1" x1="-225.2" y1="175.8" x2="-238" y2="175.8"/>
				<line class="st1" x1="-221.5" y1="175.8" x2="-217.8" y2="175.8"/>
				<line class="st1" x1="-175.7" y1="161" x2="-172" y2="161"/>
				<line class="st1" x1="-168.3" y1="161" x2="-164.7" y2="161"/>
			</g>
		</g>
		<g>
			<g>
				<g>
					<g>
						<rect x="-211" y="179.6" class="st3" width="47.4" height="2.7"/>
						<rect x="-211" y="185.6" class="st3" width="47.4" height="2.7"/>
						<rect x="-211" y="191.6" class="st3" width="47.4" height="2.7"/>
						<rect x="-211" y="197.6" class="st3" width="47.4" height="2.7"/>
						<rect x="-211" y="203.6" class="st3" width="47.4" height="2.7"/>
						<rect x="-211" y="209.6" class="st3" width="47.4" height="2.7"/>
						<rect x="-211" y="215.6" class="st3" width="47.4" height="2.7"/>
						<rect x="-211" y="221.6" class="st3" width="47.4" height="2.7"/>
						<rect x="-211" y="227.6" class="st3" width="47.4" height="2.7"/>
						<rect x="-211" y="233.6" class="st3" width="47.4" height="2.7"/>
						<g class="st4">
							<rect x="-160.6" y="179.6" class="st5" width="5.5" height="2.7"/>
							<rect x="-160.6" y="185.6" class="st5" width="5.5" height="2.7"/>
							<rect x="-160.6" y="191.6" class="st5" width="5.5" height="2.7"/>
							<rect x="-160.6" y="197.6" class="st5" width="5.5" height="2.7"/>
							<rect x="-160.6" y="203.6" class="st5" width="5.5" height="2.7"/>
							<rect x="-160.6" y="209.6" class="st5" width="5.5" height="2.7"/>
							<rect x="-160.6" y="215.6" class="st5" width="5.5" height="2.7"/>
							<rect x="-160.6" y="221.6" class="st5" width="5.5" height="2.7"/>
							<rect x="-160.6" y="227.6" class="st5" width="5.5" height="2.7"/>
							<rect x="-160.6" y="233.6" class="st5" width="5.5" height="2.7"/>
						</g>
					</g>
				</g>
				<path class="st1" d="M-153.4,239.7h-59.2c-1.2,0-2.1-1-2.1-2.1v-67.9c0-1.2,1-2.1,2.1-2.1h59.2c1.2,0,2.1,1,2.1,2.1v67.9
					C-151.3,238.8-152.3,239.7-153.4,239.7z"/>
				<g>
					<path class="st0" d="M-155.7,176h-4.9v-4.7h4.9c0.6,0,1,0.4,1,1v2.7C-154.7,175.5-155.2,176-155.7,176z"/>
					<g>
						<g>
							<circle class="st6" cx="-157.6" cy="173.4" r="0.9"/>
							<g>
								<circle class="st0" cx="-157.6" cy="173.4" r="0.7"/>
							</g>
							<g>
								<path class="st6" d="M-158.3,173.9l-0.8,0.8v0.1l0.1,0.1h0.1l0.8-0.8C-158.2,174.1-158.3,174-158.3,173.9z"/>
							</g>
						</g>
					</g>
					<g>
						<text transform="matrix(1 0 0 1 -208.4842 174.8713)" class="st0 st7 st8">Search</text>
					</g>
					<path class="st9" d="M-157.2,176.3h-51.7c-1.5,0-2.7-1.2-2.7-2.7l0,0c0-1.5,1.2-2.7,2.7-2.7h51.7c1.5,0,2.7,1.2,2.7,2.7l0,0
						C-154.5,175.1-155.7,176.3-157.2,176.3z"/>
				</g>
			</g>
			<g>
				<circle class="st3" cx="-195.7" cy="216.1" r="16.8"/>
				<circle class="st10" cx="-195.7" cy="216.1" r="16.8"/>
				<path class="st0" d="M-207,228.6l-11.5,17.6c-0.4,0.7-0.2,1.5,0.4,2l2.7,1.7c0.7,0.4,1.5,0.2,2-0.4l11.6-17.7
					C-203.7,231-205.5,229.9-207,228.6z"/>
			</g>
		</g>
	</g>
</g>
</svg>
