<?xml version="1.0" encoding="utf-8"?>
<!-- Generator: Adobe Illustrator 19.0.0, SVG Export Plug-In . SVG Version: 6.00 Build 0)  -->
<svg version="1.1" id="Layer_1" xmlns="http://www.w3.org/2000/svg" xmlns:xlink="http://www.w3.org/1999/xlink" x="0px" y="0px"
	 viewBox="-245 148.6 120 104.8" style="enable-background:new -245 148.6 120 104.8;" xml:space="preserve">
<style type="text/css">
	.st0{opacity:0.47;}
	.st1{fill:#02B7FB;}
	.st2{fill:#225DD1;}
	.st3{fill:none;stroke:#225DD2;stroke-width:1.4;stroke-miterlimit:10;}
	.st4{fill:#BDE7FF;}
	.st5{fill:none;stroke:#192469;stroke-width:1.5;stroke-linecap:round;stroke-miterlimit:10;}
	.st6{fill:none;stroke:#225DD2;stroke-width:0.75;stroke-miterlimit:10;}
	.st7{fill:none;stroke:#225DD2;stroke-width:0.5;stroke-miterlimit:10;}
	.st8{opacity:0.37;}
	.st9{fill:none;stroke:#225DD2;stroke-miterlimit:10;}
	.st10{opacity:0.22;fill:#02B7FB;enable-background:new    ;}
	.st11{opacity:0.68;fill:#225DD1;enable-background:new    ;}
	.st12{fill:none;stroke:#225DD2;stroke-width:2;stroke-miterlimit:10;}
	.st13{fill:#FFFFFF;}
	.st14{fill:#2ECEFF;}
</style>
<g class="st0">
	<path class="st1" d="M-356.8,398.3h-5.2c-0.4,0-0.8-0.3-0.8-0.8v-5.2c0-0.4,0.3-0.8,0.8-0.8h5.2c0.4,0,0.8,0.3,0.8,0.8v5.2
		C-356,397.9-356.3,398.3-356.8,398.3z"/>
	<path class="st1" d="M-347.7,398.3h-5.2c-0.4,0-0.8-0.3-0.8-0.8v-5.2c0-0.4,0.3-0.8,0.8-0.8h5.2c0.4,0,0.8,0.3,0.8,0.8v5.2
		C-346.9,397.9-347.3,398.3-347.7,398.3z"/>
	<path class="st1" d="M-338.6,398.3h-5.2c-0.4,0-0.8-0.3-0.8-0.8v-5.2c0-0.4,0.3-0.8,0.8-0.8h5.2c0.4,0,0.8,0.3,0.8,0.8v5.2
		C-337.8,397.9-338.2,398.3-338.6,398.3z"/>
	<path class="st1" d="M-329.5,398.3h-5.2c-0.4,0-0.8-0.3-0.8-0.8v-5.2c0-0.4,0.3-0.8,0.8-0.8h5.2c0.4,0,0.8,0.3,0.8,0.8v5.2
		C-328.7,397.9-329.1,398.3-329.5,398.3z"/>
	<path class="st1" d="M-311.3,398.3h-5.2c-0.4,0-0.8-0.3-0.8-0.8v-5.2c0-0.4,0.3-0.8,0.8-0.8h5.2c0.4,0,0.8,0.3,0.8,0.8v5.2
		C-310.6,397.9-310.9,398.3-311.3,398.3z"/>
	<path class="st1" d="M-356.8,406.9h-5.2c-0.4,0-0.8-0.3-0.8-0.8v-5.2c0-0.4,0.3-0.8,0.8-0.8h5.2c0.4,0,0.8,0.3,0.8,0.8v5.2
		C-356,406.6-356.3,406.9-356.8,406.9z"/>
	<path class="st1" d="M-347.7,406.9h-5.2c-0.4,0-0.8-0.3-0.8-0.8v-5.2c0-0.4,0.3-0.8,0.8-0.8h5.2c0.4,0,0.8,0.3,0.8,0.8v5.2
		C-346.9,406.6-347.3,406.9-347.7,406.9z"/>
	<path class="st1" d="M-338.6,406.9h-5.2c-0.4,0-0.8-0.3-0.8-0.8v-5.2c0-0.4,0.3-0.8,0.8-0.8h5.2c0.4,0,0.8,0.3,0.8,0.8v5.2
		C-337.8,406.6-338.2,406.9-338.6,406.9z"/>
	<path class="st1" d="M-329.5,406.9h-5.2c-0.4,0-0.8-0.3-0.8-0.8v-5.2c0-0.4,0.3-0.8,0.8-0.8h5.2c0.4,0,0.8,0.3,0.8,0.8v5.2
		C-328.7,406.6-329.1,406.9-329.5,406.9z"/>
	<path class="st1" d="M-320.4,406.9h-5.2c-0.4,0-0.8-0.3-0.8-0.8v-5.2c0-0.4,0.3-0.8,0.8-0.8h5.2c0.4,0,0.8,0.3,0.8,0.8v5.2
		C-319.7,406.6-320,406.9-320.4,406.9z"/>
	<path class="st1" d="M-311.3,406.9h-5.2c-0.4,0-0.8-0.3-0.8-0.8v-5.2c0-0.4,0.3-0.8,0.8-0.8h5.2c0.4,0,0.8,0.3,0.8,0.8v5.2
		C-310.6,406.6-310.9,406.9-311.3,406.9z"/>
	<path class="st1" d="M-356.8,415.5h-5.2c-0.4,0-0.8-0.3-0.8-0.8v-5.2c0-0.4,0.3-0.8,0.8-0.8h5.2c0.4,0,0.8,0.3,0.8,0.8v5.2
		C-356,415.2-356.3,415.5-356.8,415.5z"/>
	<path class="st1" d="M-347.7,415.5h-5.2c-0.4,0-0.8-0.3-0.8-0.8v-5.2c0-0.4,0.3-0.8,0.8-0.8h5.2c0.4,0,0.8,0.3,0.8,0.8v5.2
		C-346.9,415.2-347.3,415.5-347.7,415.5z"/>
	<path class="st1" d="M-338.6,415.5h-5.2c-0.4,0-0.8-0.3-0.8-0.8v-5.2c0-0.4,0.3-0.8,0.8-0.8h5.2c0.4,0,0.8,0.3,0.8,0.8v5.2
		C-337.8,415.2-338.2,415.5-338.6,415.5z"/>
	<path class="st1" d="M-329.5,415.5h-5.2c-0.4,0-0.8-0.3-0.8-0.8v-5.2c0-0.4,0.3-0.8,0.8-0.8h5.2c0.4,0,0.8,0.3,0.8,0.8v5.2
		C-328.7,415.2-329.1,415.5-329.5,415.5z"/>
	<path class="st1" d="M-320.4,415.5h-5.2c-0.4,0-0.8-0.3-0.8-0.8v-5.2c0-0.4,0.3-0.8,0.8-0.8h5.2c0.4,0,0.8,0.3,0.8,0.8v5.2
		C-319.7,415.2-320,415.5-320.4,415.5z"/>
	<path class="st1" d="M-311.3,415.5h-5.2c-0.4,0-0.8-0.3-0.8-0.8v-5.2c0-0.4,0.3-0.8,0.8-0.8h5.2c0.4,0,0.8,0.3,0.8,0.8v5.2
		C-310.6,415.2-310.9,415.5-311.3,415.5z"/>
	<path class="st1" d="M-356.8,424.1h-5.2c-0.4,0-0.8-0.3-0.8-0.8v-5.2c0-0.4,0.3-0.8,0.8-0.8h5.2c0.4,0,0.8,0.3,0.8,0.8v5.2
		C-356,423.8-356.3,424.1-356.8,424.1z"/>
	<path class="st1" d="M-347.7,424.1h-5.2c-0.4,0-0.8-0.3-0.8-0.8v-5.2c0-0.4,0.3-0.8,0.8-0.8h5.2c0.4,0,0.8,0.3,0.8,0.8v5.2
		C-346.9,423.8-347.3,424.1-347.7,424.1z"/>
	<path class="st1" d="M-338.6,424.1h-5.2c-0.4,0-0.8-0.3-0.8-0.8v-5.2c0-0.4,0.3-0.8,0.8-0.8h5.2c0.4,0,0.8,0.3,0.8,0.8v5.2
		C-337.8,423.8-338.2,424.1-338.6,424.1z"/>
	<path class="st1" d="M-329.5,424.1h-5.2c-0.4,0-0.8-0.3-0.8-0.8v-5.2c0-0.4,0.3-0.8,0.8-0.8h5.2c0.4,0,0.8,0.3,0.8,0.8v5.2
		C-328.7,423.8-329.1,424.1-329.5,424.1z"/>
	<path class="st1" d="M-320.4,424.1h-5.2c-0.4,0-0.8-0.3-0.8-0.8v-5.2c0-0.4,0.3-0.8,0.8-0.8h5.2c0.4,0,0.8,0.3,0.8,0.8v5.2
		C-319.7,423.8-320,424.1-320.4,424.1z"/>
	<path class="st1" d="M-311.3,424.1h-5.2c-0.4,0-0.8-0.3-0.8-0.8v-5.2c0-0.4,0.3-0.8,0.8-0.8h5.2c0.4,0,0.8,0.3,0.8,0.8v5.2
		C-310.6,423.8-310.9,424.1-311.3,424.1z"/>
</g>
<path class="st2" d="M-306,382.6v5.4h-61.3v-5.4c0-1.7,1.6-3,3.5-3h54.3C-307.6,379.6-306,381-306,382.6z"/>
<path class="st3" d="M-306,383.5v41.2c0,1.8-1.6,3.2-3.5,3.2h-54.3c-1.9,0-3.5-1.5-3.5-3.2v-41.2c0-1.8,1.6-3.2,3.5-3.2h54.3
	C-307.6,380.3-306,381.7-306,383.5z"/>
<g>
	<circle class="st4" cx="-363.6" cy="385" r="1.3"/>
	<circle class="st4" cx="-352.8" cy="385" r="1.3"/>
	<circle class="st4" cx="-342" cy="385" r="1.3"/>
	<circle class="st4" cx="-320.3" cy="385" r="1.3"/>
	<circle class="st4" cx="-309.5" cy="385" r="1.3"/>
</g>
<line class="st5" x1="-363.6" y1="385" x2="-363.6" y2="379.1"/>
<line class="st5" x1="-352.8" y1="385" x2="-352.8" y2="379.1"/>
<line class="st5" x1="-342" y1="385" x2="-342" y2="379.1"/>
<circle class="st4" cx="-331.2" cy="385" r="1.3"/>
<line class="st5" x1="-331.2" y1="385" x2="-331.2" y2="379.1"/>
<line class="st5" x1="-320.3" y1="385" x2="-320.3" y2="379.1"/>
<line class="st5" x1="-309.5" y1="385" x2="-309.5" y2="379.1"/>
<path class="st6" d="M-325.1,395.4c0.1,0.1,1.4,1.4,1.4,1.4l2.9-3.8"/>
<path class="st7" d="M-320.6,398.1h-4.8c-0.4,0-0.8-0.3-0.8-0.8v-4.8c0-0.4,0.3-0.8,0.8-0.8h4.8c0.4,0,0.8,0.3,0.8,0.8v4.8
	C-319.9,397.7-320.2,398.1-320.6,398.1z"/>
<path class="st3" d="M-205,444.7h-59.2c-1.2,0-2.1-1-2.1-2.1v-67.9c0-1.2,1-2.1,2.1-2.1h59.2c1.2,0,2.1,1,2.1,2.1v67.9
	C-202.9,443.8-203.9,444.7-205,444.7z"/>
<g>
	<line class="st3" x1="-282.7" y1="459.2" x2="-191" y2="459.2"/>
	<line class="st3" x1="-189.5" y1="459.2" x2="-182.2" y2="459.2"/>
	<line class="st3" x1="-179.7" y1="459.2" x2="-176" y2="459.2"/>
	<line class="st3" x1="-289.2" y1="459.2" x2="-285.5" y2="459.2"/>
</g>
<g class="st8">
	<path class="st3" d="M-230.3,357.1H-243c-0.9-1.8-3.1-3.7-5.7-3.7c-0.8,0-1.6,0.2-2.3,0.5c-1.4-3.8-5.1-6.7-9.4-6.7
		c-5.6,0-10.1,6.3-10.1,9.9h-14.8"/>
	<line class="st3" x1="-276.2" y1="371.9" x2="-289" y2="371.9"/>
	<line class="st3" x1="-272.5" y1="371.9" x2="-268.8" y2="371.9"/>
	<line class="st3" x1="-226.7" y1="357.1" x2="-223" y2="357.1"/>
	<line class="st3" x1="-219.3" y1="357.1" x2="-215.7" y2="357.1"/>
</g>
<g>
	<g class="st8">
		<path class="st3" d="M-179.3,161.4H-192c-0.9-1.8-3.1-3.7-5.7-3.7c-0.8,0-1.6,0.2-2.3,0.5c-1.4-3.8-5.1-6.7-9.4-6.7
			c-5.6,0-10.1,6.3-10.1,9.9h-14.8"/>
		<line class="st3" x1="-225.2" y1="176.2" x2="-238" y2="176.2"/>
		<line class="st3" x1="-221.5" y1="176.2" x2="-217.8" y2="176.2"/>
		<line class="st3" x1="-175.7" y1="161.4" x2="-172" y2="161.4"/>
		<line class="st3" x1="-168.3" y1="161.4" x2="-164.7" y2="161.4"/>
	</g>
	<g>
		<path class="st9" d="M-176.1,234.3h-30.7c-1.5,0-2.7-1.2-2.7-2.7v-17.1c0-1.5,1.2-2.7,2.7-2.7h30.7c1.5,0,2.7,1.2,2.7,2.7v17.1
			C-173.5,233.1-174.7,234.3-176.1,234.3z"/>
		<g>
			<path class="st10" d="M-182.8,220.6L-182.8,220.6c-1.6,0-3-1.3-3-3l0,0c0-1.6,1.3-3,3-3l0,0c1.6,0,3,1.3,3,3l0,0
				C-179.8,219.2-181.1,220.6-182.8,220.6z"/>
			<path class="st11" d="M-179,220.6L-179,220.6c-1.6,0-3-1.3-3-3l0,0c0-1.6,1.3-3,3-3l0,0c1.6,0,3,1.3,3,3l0,0
				C-176.1,219.3-177.4,220.6-179,220.6z"/>
		</g>
		<g>
			<path class="st10" d="M-201.4,226.8h-4.7c-0.5,0-0.9-0.4-0.9-0.9v-3.8c0-0.5,0.4-0.9,0.9-0.9h4.7c0.5,0,0.9,0.4,0.9,0.9v3.8
				C-200.5,226.4-200.9,226.8-201.4,226.8z"/>
			<path class="st10" d="M-195.1,231.4h-11.1c-0.4,0-0.7-0.3-0.7-0.7v-1.3c0-0.4,0.3-0.7,0.7-0.7h11.1c0.4,0,0.7,0.3,0.7,0.7v1.3
				C-194.4,231.1-194.7,231.4-195.1,231.4z"/>
			<path class="st10" d="M-186.4,231.4h-6.3c-0.4,0-0.7-0.3-0.7-0.7v-1.3c0-0.4,0.3-0.7,0.7-0.7h6.3c0.4,0,0.7,0.3,0.7,0.7v1.3
				C-185.7,231.1-186,231.4-186.4,231.4z"/>
			<path class="st10" d="M-177.7,231.4h-6.3c-0.4,0-0.7-0.3-0.7-0.7v-1.3c0-0.4,0.3-0.7,0.7-0.7h6.3c0.4,0,0.7,0.3,0.7,0.7v1.3
				C-177,231.1-177.3,231.4-177.7,231.4z"/>
			<path class="st11" d="M-188.3,219h-17.9c-0.4,0-0.7-0.3-0.7-0.7V217c0-0.4,0.3-0.7,0.7-0.7h17.9c0.4,0,0.7,0.3,0.7,0.7v1.3
				C-187.6,218.7-187.9,219-188.3,219z"/>
		</g>
		<path class="st10" d="M-158.3,188.4h-29.5c-1,0-1.8-0.8-1.8-1.8v-0.3c0-1,0.8-1.8,1.8-1.8h29.5c1,0,1.8,0.8,1.8,1.8v0.3
			C-156.5,187.6-157.3,188.4-158.3,188.4z"/>
		<path class="st10" d="M-158.3,194.4h-29.5c-1,0-1.8-0.8-1.8-1.8v-0.3c0-1,0.8-1.8,1.8-1.8h29.5c1,0,1.8,0.8,1.8,1.8v0.3
			C-156.5,193.6-157.3,194.4-158.3,194.4z"/>
		<path class="st10" d="M-158.3,200.5h-29.5c-1,0-1.8-0.8-1.8-1.8v-0.3c0-1,0.8-1.8,1.8-1.8h29.5c1,0,1.8,0.8,1.8,1.8v0.3
			C-156.5,199.6-157.3,200.5-158.3,200.5z"/>
		<g>
			<path class="st10" d="M-196,200.5h-10.8c-1.5,0-2.8-1.2-2.8-2.8v-10.4c0-1.5,1.2-2.8,2.8-2.8h10.8c1.5,0,2.8,1.2,2.8,2.8v10.4
				C-193.2,199.2-194.4,200.5-196,200.5z"/>
			<path class="st9" d="M-196,200.5h-10.8c-1.5,0-2.8-1.2-2.8-2.8v-10.4c0-1.5,1.2-2.8,2.8-2.8h10.8c1.5,0,2.8,1.2,2.8,2.8v10.4
				C-193.2,199.2-194.4,200.5-196,200.5z"/>
		</g>
		<path class="st12" d="M-206.7,193.7c0.2,0.2,3.5,3.5,3.5,3.5l7.2-9.4"/>
		<polygon class="st2" points="-212.6,168 -214.7,168.8 -214.7,170.1 -214.7,180.3 -151.3,180.3 -151.3,169.8 -153.2,167.9 		"/>
		<g>
			<line class="st3" x1="-235.1" y1="250.5" x2="-143.4" y2="250.5"/>
			<line class="st3" x1="-141.9" y1="250.5" x2="-134.6" y2="250.5"/>
			<line class="st3" x1="-132.1" y1="250.5" x2="-128.4" y2="250.5"/>
			<line class="st3" x1="-241.6" y1="250.5" x2="-237.9" y2="250.5"/>
		</g>
		<g>
			<path class="st3" d="M-153.4,240.1h-59.2c-1.2,0-2.1-1-2.1-2.1v-67.9c0-1.2,1-2.1,2.1-2.1h59.2c1.2,0,2.1,1,2.1,2.1V238
				C-151.3,239.2-152.3,240.1-153.4,240.1z"/>
		</g>
		<path class="st13" d="M-149.7,206.2h-2.8c0-1.6-1.5-2.8-2.8-2.8h-2.8c-0.5-0.8-1.9-1.4-2.8-1.4h-2.8v-9.8c0-1.5-1.3-2.8-2.8-2.8
			s-2.8,1.3-2.8,2.8v21l-1.9,1.8l-3.7-5.6c-2.2-3.1-5.6-1.3-5.6,0c0,0,4.2,13.5,4.8,14.5c1,1.5,4.9,5,4.9,6.1c0,1.2,0,5.6,0,5.6h21
			c0,0,0-2.3,0-4.2s2.8-4.2,2.8-7V209C-146.9,207.5-148.4,206.2-149.7,206.2z"/>
		<path class="st3" d="M-170.7,235.6c0,0,0-4.4,0-5.6s-4-4.6-4.9-6.1c-0.6-1-4.8-14.5-4.8-14.5c0-1.3,3.4-3.1,5.6,0l3.7,5.6l1.9-1.8
			v-21c0-1.5,1.3-2.8,2.8-2.8l0,0c1.5,0,2.8,1.3,2.8,2.8v18.2V209v-7h2.8c0.9,0,2.3,0.6,2.8,1.4h2.8c1.3,0,2.8,1.2,2.8,2.8h2.8
			c1.3,0,2.8,1.2,2.8,2.8v15.4c0,2.8-2.8,5.1-2.8,7s0,4.2,0,4.2"/>
		<line class="st3" x1="-158.1" y1="203.3" x2="-158.1" y2="210.3"/>
		<line class="st3" x1="-152.4" y1="206.2" x2="-152.4" y2="211.8"/>
		<rect x="-173.5" y="234.2" class="st14" width="26.6" height="15.7"/>
		<polyline class="st3" points="-146.9,249.9 -146.9,234.2 -173.5,234.2 -173.5,249.9 		"/>
		<path class="st13" d="M-200,172.7c0,0.4-0.1,0.8-0.2,1.1c-0.1,0.3-0.3,0.6-0.5,0.8s-0.5,0.4-0.9,0.5c-0.3,0.1-0.8,0.2-1.2,0.2
			h-0.6v2.3v0.1l-0.1,0.1c-0.1,0-0.1,0-0.2,0c-0.1,0-0.2,0-0.4,0c-0.1,0-0.3,0-0.4,0c-0.1,0-0.2,0-0.2,0s-0.1,0-0.1-0.1v-0.1v-6.4
			c0-0.2,0-0.3,0.1-0.4c0.1-0.1,0.2-0.1,0.4-0.1h1.7c0.2,0,0.3,0,0.5,0s0.3,0,0.5,0.1c0.2,0,0.4,0.1,0.6,0.2
			c0.2,0.1,0.4,0.3,0.6,0.4s0.3,0.4,0.4,0.6C-200,172.1-200,172.4-200,172.7z M-201.5,172.8c0-0.3,0-0.5-0.1-0.6
			c-0.1-0.2-0.2-0.3-0.3-0.4c-0.1-0.1-0.3-0.1-0.4-0.1c-0.1,0-0.3,0-0.4,0h-0.6v2.4h0.7c0.2,0,0.4,0,0.6-0.1
			c0.2-0.1,0.3-0.2,0.4-0.3c0.1-0.1,0.2-0.2,0.2-0.4C-201.5,173.2-201.5,173-201.5,172.8z"/>
		<path class="st13" d="M-193.8,177.1c0,0.1,0.1,0.2,0.1,0.3s0,0.1,0,0.2c0,0-0.1,0.1-0.2,0.1c-0.1,0-0.2,0-0.4,0s-0.3,0-0.4,0
			c-0.1,0-0.2,0-0.2,0c-0.1,0-0.1,0-0.1-0.1c0,0,0-0.1-0.1-0.1l-0.5-1.4h-2.7l-0.5,1.4c0,0.1,0,0.1-0.1,0.1l-0.1,0.1
			c-0.1,0-0.1,0-0.2,0c-0.1,0-0.2,0-0.4,0s-0.3,0-0.4,0c-0.1,0-0.2,0-0.2-0.1c0,0,0-0.1,0-0.2c0-0.1,0-0.2,0.1-0.3l2.2-6.3
			c0-0.1,0-0.1,0.1-0.2l0.1-0.1c0.1,0,0.2,0,0.3,0s0.3,0,0.5,0s0.4,0,0.5,0s0.2,0,0.3,0s0.1,0.1,0.2,0.1c0,0,0.1,0.1,0.1,0.2
			L-193.8,177.1z M-197,171.9L-197,171.9l-1,3h2L-197,171.9z"/>
		<path class="st13" d="M-190.8,175v2.5v0.1l-0.1,0.1c0,0-0.1,0-0.2,0c-0.1,0-0.2,0-0.4,0c-0.1,0-0.3,0-0.4,0c-0.1,0-0.2,0-0.2,0
			s-0.1,0-0.1-0.1v-0.1V175l-2-3.9c-0.1-0.1-0.1-0.2-0.1-0.3s0-0.1,0-0.2c0,0,0.1-0.1,0.2-0.1c0.1,0,0.3,0,0.5,0s0.3,0,0.4,0
			c0.1,0,0.2,0,0.2,0c0.1,0,0.1,0,0.1,0.1l0.1,0.1l0.8,1.8c0.1,0.2,0.2,0.3,0.2,0.5c0.1,0.2,0.2,0.4,0.2,0.6l0,0
			c0.1-0.2,0.1-0.4,0.2-0.6c0.1-0.2,0.1-0.4,0.2-0.5l0.8-1.7c0-0.1,0-0.1,0.1-0.1l0.1-0.1c0.1,0,0.1,0,0.2,0c0.1,0,0.2,0,0.4,0
			s0.4,0,0.5,0s0.2,0,0.2,0.1s0.1,0.1,0,0.2c0,0.1-0.1,0.2-0.1,0.3L-190.8,175z"/>
		<path class="st13" d="M-179.4,177.2c0,0.1,0,0.2,0,0.2c0,0.1-0.1,0.1-0.1,0.2c0,0-0.1,0.1-0.2,0.1c-0.1,0-0.1,0-0.2,0h-0.6
			c-0.1,0-0.2,0-0.3,0s-0.2-0.1-0.3-0.1c-0.1-0.1-0.2-0.2-0.2-0.3c-0.1-0.1-0.2-0.3-0.2-0.4l-1.8-3.3c-0.1-0.2-0.2-0.4-0.3-0.6
			c-0.1-0.2-0.2-0.5-0.3-0.7l0,0c0,0.3,0,0.5,0,0.8s0,0.5,0,0.8v3.7v0.1l-0.1,0.1c0,0-0.1,0-0.2,0c-0.1,0-0.2,0-0.3,0s-0.2,0-0.3,0
			s-0.2,0-0.2,0s-0.1,0-0.1-0.1v-0.1v-6.4c0-0.2,0.1-0.3,0.2-0.4c0.1-0.1,0.2-0.1,0.4-0.1h0.8c0.1,0,0.3,0,0.4,0s0.2,0.1,0.3,0.1
			c0.1,0.1,0.1,0.1,0.2,0.2c0.1,0.1,0.1,0.2,0.2,0.4l1.4,2.6c0.1,0.2,0.2,0.3,0.2,0.5c0.1,0.2,0.2,0.3,0.2,0.5
			c0.1,0.2,0.1,0.3,0.2,0.4c0.1,0.1,0.1,0.3,0.2,0.4l0,0c0-0.3,0-0.5,0-0.8s0-0.5,0-0.8v-3.3v-0.1l0.1-0.1c0.1,0,0.1,0,0.2,0
			c0.1,0,0.2,0,0.3,0s0.2,0,0.3,0s0.1,0,0.2,0c0,0,0.1,0,0.1,0.1v0.1v6.3H-179.4z"/>
		<path class="st13" d="M-171.4,174c0,0.6-0.1,1.1-0.2,1.6c-0.1,0.5-0.4,0.9-0.7,1.2s-0.6,0.6-1.1,0.7c-0.4,0.2-0.9,0.3-1.5,0.3
			s-1-0.1-1.5-0.2c-0.4-0.1-0.8-0.4-1-0.7c-0.3-0.3-0.5-0.7-0.6-1.1s-0.2-1-0.2-1.6s0.1-1.1,0.2-1.6c0.1-0.5,0.4-0.9,0.7-1.2
			s0.6-0.6,1.1-0.7c0.4-0.2,0.9-0.3,1.5-0.3c0.5,0,1,0.1,1.4,0.2c0.4,0.1,0.8,0.4,1,0.7c0.3,0.3,0.5,0.7,0.6,1.1
			C-171.5,172.9-171.4,173.4-171.4,174z M-173,174.1c0-0.4,0-0.7-0.1-1s-0.2-0.6-0.3-0.8s-0.3-0.4-0.6-0.5c-0.2-0.1-0.5-0.2-0.9-0.2
			s-0.7,0.1-0.9,0.2c-0.2,0.1-0.4,0.3-0.6,0.5c-0.1,0.2-0.3,0.5-0.3,0.8c-0.1,0.3-0.1,0.6-0.1,1s0,0.7,0.1,1.1
			c0.1,0.3,0.2,0.6,0.3,0.8s0.3,0.4,0.6,0.5c0.2,0.1,0.5,0.2,0.9,0.2s0.7-0.1,0.9-0.2c0.2-0.1,0.4-0.3,0.6-0.5
			c0.1-0.2,0.3-0.5,0.3-0.8C-173,174.8-173,174.4-173,174.1z"/>
		<path class="st13" d="M-162.8,177.3c0,0.1-0.1,0.2-0.1,0.2c0,0.1-0.1,0.1-0.2,0.1c-0.1,0-0.2,0-0.3,0.1c-0.1,0-0.3,0-0.5,0
			s-0.4,0-0.5,0s-0.2,0-0.3-0.1c-0.1,0-0.1-0.1-0.2-0.1c0-0.1-0.1-0.1-0.1-0.2l-1.1-4.5l0,0l-1.1,4.5c0,0.1,0,0.2-0.1,0.2
			c0,0.1-0.1,0.1-0.2,0.1c-0.1,0-0.2,0-0.3,0.1c-0.1,0-0.3,0-0.5,0s-0.4,0-0.5,0s-0.2,0-0.3-0.1c-0.1,0-0.1-0.1-0.2-0.1
			c0-0.1-0.1-0.1-0.1-0.2l-1.6-6.2c0-0.1-0.1-0.2-0.1-0.3s0-0.1,0.1-0.2c0,0,0.1-0.1,0.2-0.1c0.1,0,0.3,0,0.4,0c0.2,0,0.3,0,0.4,0
			c0.1,0,0.2,0,0.2,0s0.1,0,0.1,0.1c0,0,0,0.1,0,0.2l1.3,5.5l0,0l1.3-5.4c0-0.1,0-0.1,0.1-0.2s0.1-0.1,0.1-0.1c0.1,0,0.1,0,0.2,0
			c0.1,0,0.2,0,0.4,0s0.3,0,0.4,0c0.1,0,0.2,0,0.2,0c0.1,0,0.1,0.1,0.1,0.1s0,0.1,0.1,0.2l1.3,5.4l0,0l1.3-5.4c0-0.1,0-0.1,0-0.2
			l0.1-0.1c0.1,0,0.1,0,0.2,0c0.1,0,0.2,0,0.4,0s0.3,0,0.4,0c0.1,0,0.2,0,0.2,0.1c0,0,0.1,0.1,0.1,0.2c0,0.1,0,0.2-0.1,0.3
			L-162.8,177.3z"/>
	</g>
</g>
</svg>
