<?xml version="1.0" encoding="utf-8"?>
<!-- Generator: Adobe Illustrator 19.0.0, SVG Export Plug-In . SVG Version: 6.00 Build 0)  -->
<svg version="1.1" id="Layer_1" xmlns="http://www.w3.org/2000/svg" xmlns:xlink="http://www.w3.org/1999/xlink" x="0px" y="0px"
	 viewBox="-245 148.6 120 104.8" style="enable-background:new -245 148.6 120 104.8;" xml:space="preserve">
<style type="text/css">
	.st0{opacity:0.47;}
	.st1{fill:#02B7FB;}
	.st2{fill:#225DD1;}
	.st3{fill:none;stroke:#225DD2;stroke-width:1.4;stroke-miterlimit:10;}
	.st4{fill:#BDE7FF;}
	.st5{fill:none;stroke:#192469;stroke-width:1.5;stroke-linecap:round;stroke-miterlimit:10;}
	.st6{fill:none;stroke:#225DD2;stroke-width:0.75;stroke-miterlimit:10;}
	.st7{fill:none;stroke:#225DD2;stroke-width:0.5;stroke-miterlimit:10;}
	.st8{fill:#FFFFFF;}
	.st9{fill:#2ECEFF;}
	.st10{opacity:0.37;}
	.st11{fill:#225DD2;}
</style>
<g>
	<g>
		<g>
			<g class="st0">
				<path class="st1" d="M-207.6,187.3h-5.2c-0.4,0-0.8-0.3-0.8-0.8v-5.2c0-0.4,0.3-0.8,0.8-0.8h5.2c0.4,0,0.8,0.3,0.8,0.8v5.2
					C-206.8,186.9-207.1,187.3-207.6,187.3z"/>
				<path class="st1" d="M-198.5,187.3h-5.2c-0.4,0-0.8-0.3-0.8-0.8v-5.2c0-0.4,0.3-0.8,0.8-0.8h5.2c0.4,0,0.8,0.3,0.8,0.8v5.2
					C-197.7,186.9-198.1,187.3-198.5,187.3z"/>
				<path class="st1" d="M-189.4,187.3h-5.2c-0.4,0-0.8-0.3-0.8-0.8v-5.2c0-0.4,0.3-0.8,0.8-0.8h5.2c0.4,0,0.8,0.3,0.8,0.8v5.2
					C-188.6,186.9-189,187.3-189.4,187.3z"/>
				<path class="st1" d="M-180.3,187.3h-5.2c-0.4,0-0.8-0.3-0.8-0.8v-5.2c0-0.4,0.3-0.8,0.8-0.8h5.2c0.4,0,0.8,0.3,0.8,0.8v5.2
					C-179.5,186.9-179.9,187.3-180.3,187.3z"/>
				<path class="st1" d="M-162.1,187.3h-5.2c-0.4,0-0.8-0.3-0.8-0.8v-5.2c0-0.4,0.3-0.8,0.8-0.8h5.2c0.4,0,0.8,0.3,0.8,0.8v5.2
					C-161.4,186.9-161.7,187.3-162.1,187.3z"/>
				<path class="st1" d="M-207.6,195.9h-5.2c-0.4,0-0.8-0.3-0.8-0.8v-5.2c0-0.4,0.3-0.8,0.8-0.8h5.2c0.4,0,0.8,0.3,0.8,0.8v5.2
					C-206.8,195.6-207.1,195.9-207.6,195.9z"/>
				<path class="st1" d="M-198.5,195.9h-5.2c-0.4,0-0.8-0.3-0.8-0.8v-5.2c0-0.4,0.3-0.8,0.8-0.8h5.2c0.4,0,0.8,0.3,0.8,0.8v5.2
					C-197.7,195.6-198.1,195.9-198.5,195.9z"/>
				<path class="st1" d="M-189.4,195.9h-5.2c-0.4,0-0.8-0.3-0.8-0.8v-5.2c0-0.4,0.3-0.8,0.8-0.8h5.2c0.4,0,0.8,0.3,0.8,0.8v5.2
					C-188.6,195.6-189,195.9-189.4,195.9z"/>
				<path class="st1" d="M-180.3,195.9h-5.2c-0.4,0-0.8-0.3-0.8-0.8v-5.2c0-0.4,0.3-0.8,0.8-0.8h5.2c0.4,0,0.8,0.3,0.8,0.8v5.2
					C-179.5,195.6-179.9,195.9-180.3,195.9z"/>
				<path class="st1" d="M-171.2,195.9h-5.2c-0.4,0-0.8-0.3-0.8-0.8v-5.2c0-0.4,0.3-0.8,0.8-0.8h5.2c0.4,0,0.8,0.3,0.8,0.8v5.2
					C-170.5,195.6-170.8,195.9-171.2,195.9z"/>
				<path class="st1" d="M-162.1,195.9h-5.2c-0.4,0-0.8-0.3-0.8-0.8v-5.2c0-0.4,0.3-0.8,0.8-0.8h5.2c0.4,0,0.8,0.3,0.8,0.8v5.2
					C-161.4,195.6-161.7,195.9-162.1,195.9z"/>
				<path class="st1" d="M-207.6,204.5h-5.2c-0.4,0-0.8-0.3-0.8-0.8v-5.2c0-0.4,0.3-0.8,0.8-0.8h5.2c0.4,0,0.8,0.3,0.8,0.8v5.2
					C-206.8,204.2-207.1,204.5-207.6,204.5z"/>
				<path class="st1" d="M-198.5,204.5h-5.2c-0.4,0-0.8-0.3-0.8-0.8v-5.2c0-0.4,0.3-0.8,0.8-0.8h5.2c0.4,0,0.8,0.3,0.8,0.8v5.2
					C-197.7,204.2-198.1,204.5-198.5,204.5z"/>
				<path class="st1" d="M-189.4,204.5h-5.2c-0.4,0-0.8-0.3-0.8-0.8v-5.2c0-0.4,0.3-0.8,0.8-0.8h5.2c0.4,0,0.8,0.3,0.8,0.8v5.2
					C-188.6,204.2-189,204.5-189.4,204.5z"/>
				<path class="st1" d="M-180.3,204.5h-5.2c-0.4,0-0.8-0.3-0.8-0.8v-5.2c0-0.4,0.3-0.8,0.8-0.8h5.2c0.4,0,0.8,0.3,0.8,0.8v5.2
					C-179.5,204.2-179.9,204.5-180.3,204.5z"/>
				<path class="st1" d="M-171.2,204.5h-5.2c-0.4,0-0.8-0.3-0.8-0.8v-5.2c0-0.4,0.3-0.8,0.8-0.8h5.2c0.4,0,0.8,0.3,0.8,0.8v5.2
					C-170.5,204.2-170.8,204.5-171.2,204.5z"/>
				<path class="st1" d="M-162.1,204.5h-5.2c-0.4,0-0.8-0.3-0.8-0.8v-5.2c0-0.4,0.3-0.8,0.8-0.8h5.2c0.4,0,0.8,0.3,0.8,0.8v5.2
					C-161.4,204.2-161.7,204.5-162.1,204.5z"/>
				<path class="st1" d="M-207.6,213.1h-5.2c-0.4,0-0.8-0.3-0.8-0.8v-5.2c0-0.4,0.3-0.8,0.8-0.8h5.2c0.4,0,0.8,0.3,0.8,0.8v5.2
					C-206.8,212.8-207.1,213.1-207.6,213.1z"/>
				<path class="st1" d="M-198.5,213.1h-5.2c-0.4,0-0.8-0.3-0.8-0.8v-5.2c0-0.4,0.3-0.8,0.8-0.8h5.2c0.4,0,0.8,0.3,0.8,0.8v5.2
					C-197.7,212.8-198.1,213.1-198.5,213.1z"/>
				<path class="st1" d="M-189.4,213.1h-5.2c-0.4,0-0.8-0.3-0.8-0.8v-5.2c0-0.4,0.3-0.8,0.8-0.8h5.2c0.4,0,0.8,0.3,0.8,0.8v5.2
					C-188.6,212.8-189,213.1-189.4,213.1z"/>
				<path class="st1" d="M-180.3,213.1h-5.2c-0.4,0-0.8-0.3-0.8-0.8v-5.2c0-0.4,0.3-0.8,0.8-0.8h5.2c0.4,0,0.8,0.3,0.8,0.8v5.2
					C-179.5,212.8-179.9,213.1-180.3,213.1z"/>
				<path class="st1" d="M-171.2,213.1h-5.2c-0.4,0-0.8-0.3-0.8-0.8v-5.2c0-0.4,0.3-0.8,0.8-0.8h5.2c0.4,0,0.8,0.3,0.8,0.8v5.2
					C-170.5,212.8-170.8,213.1-171.2,213.1z"/>
				<path class="st1" d="M-162.1,213.1h-5.2c-0.4,0-0.8-0.3-0.8-0.8v-5.2c0-0.4,0.3-0.8,0.8-0.8h5.2c0.4,0,0.8,0.3,0.8,0.8v5.2
					C-161.4,212.8-161.7,213.1-162.1,213.1z"/>
			</g>
			<path class="st2" d="M-156.8,171.6v5.4h-61.3v-5.4c0-1.7,1.6-3,3.5-3h54.3C-158.4,168.6-156.8,170-156.8,171.6z"/>
			<path class="st3" d="M-156.8,172.5v41.2c0,1.8-1.6,3.2-3.5,3.2h-54.3c-1.9,0-3.5-1.5-3.5-3.2v-41.2c0-1.8,1.6-3.2,3.5-3.2h54.3
				C-158.4,169.3-156.8,170.7-156.8,172.5z"/>
			<g>
				<circle class="st4" cx="-214.4" cy="174" r="1.3"/>
				<circle class="st4" cx="-203.6" cy="174" r="1.3"/>
				<circle class="st4" cx="-192.8" cy="174" r="1.3"/>
				<circle class="st4" cx="-171.1" cy="174" r="1.3"/>
				<circle class="st4" cx="-160.3" cy="174" r="1.3"/>
			</g>
			<line class="st5" x1="-214.4" y1="174" x2="-214.4" y2="168.1"/>
			<line class="st5" x1="-203.6" y1="174" x2="-203.6" y2="168.1"/>
			<line class="st5" x1="-192.8" y1="174" x2="-192.8" y2="168.1"/>
			<circle class="st4" cx="-182" cy="174" r="1.3"/>
			<line class="st5" x1="-182" y1="174" x2="-182" y2="168.1"/>
			<line class="st5" x1="-171.1" y1="174" x2="-171.1" y2="168.1"/>
			<line class="st5" x1="-160.3" y1="174" x2="-160.3" y2="168.1"/>
			<path class="st6" d="M-175.9,184.4c0.1,0.1,1.4,1.4,1.4,1.4l2.9-3.8"/>
			<path class="st7" d="M-171.4,187.1h-4.8c-0.4,0-0.8-0.3-0.8-0.8v-4.8c0-0.4,0.3-0.8,0.8-0.8h4.8c0.4,0,0.8,0.3,0.8,0.8v4.8
				C-170.7,186.7-171,187.1-171.4,187.1z"/>
		</g>
		<g>
			<path class="st8" d="M-152.8,206.8h-2.8c0-1.6-1.5-2.8-2.8-2.8h-2.8c-0.5-0.8-1.9-1.4-2.8-1.4h-2.8v-9.8c0-1.5-1.3-2.8-2.8-2.8
				s-2.8,1.3-2.8,2.8v21l-1.9,1.8l-3.7-5.6c-2.2-3.1-5.6-1.3-5.6,0c0,0,4.2,13.5,4.8,14.5c1,1.5,4.9,5,4.9,6.1c0,1.2,0,5.6,0,5.6h21
				c0,0,0-2.3,0-4.2s2.8-4.2,2.8-7v-15.4C-150,208.1-151.5,206.8-152.8,206.8z"/>
			<path class="st3" d="M-173.8,236.2c0,0,0-4.4,0-5.6s-4-4.6-4.9-6.1c-0.6-1-4.8-14.5-4.8-14.5c0-1.3,3.4-3.1,5.6,0l3.7,5.6
				l1.9-1.8v-21c0-1.5,1.3-2.8,2.8-2.8l0,0c1.5,0,2.8,1.3,2.8,2.8V211v-1.4v-7h2.8c0.9,0,2.3,0.6,2.8,1.4h2.8c1.3,0,2.8,1.2,2.8,2.8
				h2.8c1.3,0,2.8,1.2,2.8,2.8V225c0,2.8-2.8,5.1-2.8,7s0,4.2,0,4.2"/>
			<line class="st3" x1="-161.2" y1="203.9" x2="-161.2" y2="210.9"/>
			<line class="st3" x1="-155.5" y1="206.8" x2="-155.5" y2="212.4"/>
			<rect x="-176.6" y="234.8" class="st9" width="26.6" height="15.7"/>
			<polyline class="st3" points="-150,250.5 -150,234.8 -176.6,234.8 -176.6,250.5 			"/>
		</g>
	</g>
	<g>
		<line class="st3" x1="-235.1" y1="250.5" x2="-143.4" y2="250.5"/>
		<line class="st3" x1="-141.9" y1="250.5" x2="-134.6" y2="250.5"/>
		<line class="st3" x1="-132.1" y1="250.5" x2="-128.4" y2="250.5"/>
		<line class="st3" x1="-241.6" y1="250.5" x2="-237.9" y2="250.5"/>
	</g>
	<g class="st10">
		<path class="st3" d="M-182.7,161.4h-12.7c-0.9-1.8-3.1-3.7-5.7-3.7c-0.8,0-1.6,0.2-2.3,0.5c-1.4-3.8-5.1-6.7-9.4-6.7
			c-5.6,0-10.1,6.3-10.1,9.9h-14.8"/>
		<line class="st3" x1="-228.6" y1="176.2" x2="-241.4" y2="176.2"/>
		<line class="st3" x1="-224.9" y1="176.2" x2="-221.2" y2="176.2"/>
		<line class="st3" x1="-179.1" y1="161.4" x2="-175.4" y2="161.4"/>
		<line class="st3" x1="-171.7" y1="161.4" x2="-168.1" y2="161.4"/>
	</g>
</g>
<rect x="-476.6" y="252.8" class="st3" width="41" height="19.1"/>
<rect x="-525.8" y="258.4" class="st3" width="41" height="19.1"/>
<rect x="-417" y="264.2" class="st11" width="22" height="13.3"/>
</svg>
